<svg height="512" viewBox="0 0 64 64" width="512" xmlns="http://www.w3.org/2000/svg"><g id="Cloud_Artificial_Intelligence" data-name="Cloud Artificial Intelligence"><path d="m21 23h22a6 6 0 0 0 0-12h-2.063a8 8 0 0 0 -15.365-3.958 3.891 3.891 0 0 0 -.572-.042 4 4 0 0 0 -4 4 6 6 0 0 0 0 12zm0-10h1.184a1 1 0 0 0 .942-1.334 1.979 1.979 0 0 1 -.126-.666 1.989 1.989 0 0 1 2.814-1.821 1 1 0 0 0 1.379-.665 6 6 0 1 1 11.555 3.2 1 1 0 0 0 .958 1.286h3.294a4 4 0 0 1 0 8h-22a4 4 0 0 1 0-8z"/><path d="m35 11h2v2h-2z"/><path d="m31 11h2v2h-2z"/><path d="m29 40h2v2h-2z"/><path d="m33 40h2v2h-2z"/><path d="m46 53.184v-.184a5.006 5.006 0 0 0 -5-5h-.7l-1.876-1.251a2.972 2.972 0 0 0 .576-1.749v-6a3 3 0 0 0 -3-3h-8a3 3 0 0 0 -3 3v6a2.972 2.972 0 0 0 .573 1.749l-1.873 1.251h-.7a5.006 5.006 0 0 0 -5 5v.184a3 3 0 0 0 -2 2.816h2a1 1 0 0 1 2 0h2a3 3 0 0 0 -2-2.816v-.184a3 3 0 0 1 3-3v7a1 1 0 0 0 .105.447l2 4a1 1 0 0 0 .895.553h12a1 1 0 0 0 .9-.553l2-4a1 1 0 0 0 .1-.447v-7a3 3 0 0 1 3 3v.184a3 3 0 0 0 -2 2.816h2a1 1 0 0 1 2 0h2a3 3 0 0 0 -2-2.816zm-19-14.184a1 1 0 0 1 1-1h8a1 1 0 0 1 1 1v6a1 1 0 0 1 -1 1h-1v-2a1 1 0 0 0 -1-1h-4a1 1 0 0 0 -1 1v2h-1a1 1 0 0 1 -1-1zm6 7h-2v-1h2zm-5.7 2h9.4l2.3 1.535v6.465h-2v-1a5 5 0 0 0 -10 0v1h-2v-6.465zm7.7 8h-6v-1a3 3 0 0 1 6 0zm2.382 4h-10.764l-1-2h12.764z"/><path d="m39 25v5a1 1 0 0 0 .293.707l3 3 1.414-1.414-2.707-2.707v-4.586z"/><path d="m20.293 32.293 1.414 1.414 3-3a1 1 0 0 0 .293-.707v-5h-2v4.586z"/><path d="m31 25h2v9h-2z"/><path d="m46 33a3 3 0 1 0 3 3 3 3 0 0 0 -3-3zm0 4a1 1 0 1 1 1-1 1 1 0 0 1 -1 1z"/><path d="m11 33.414 5.707-5.707a1 1 0 0 0 .293-.707v-2h-2v1.586l-5.707 5.707a1 1 0 0 0 -.293.707v9h2z"/><path d="m10 44a3 3 0 1 0 3 3 3 3 0 0 0 -3-3zm0 4a1 1 0 1 1 1-1 1 1 0 0 1 -1 1z"/><path d="m49 25h-2v2a1 1 0 0 0 .293.707l5.707 5.707v8.586h2v-9a1 1 0 0 0 -.293-.707l-5.707-5.707z"/><path d="m54 44a3 3 0 1 0 3 3 3 3 0 0 0 -3-3zm0 4a1 1 0 1 1 1-1 1 1 0 0 1 -1 1z"/><path d="m21 36a3 3 0 1 0 -3 3 3 3 0 0 0 3-3zm-4 0a1 1 0 1 1 1 1 1 1 0 0 1 -1-1z"/></g></svg>