<?xml version="1.0"?>
<svg xmlns="http://www.w3.org/2000/svg" id="Outline" viewBox="0 0 64 64" width="512" height="512"><g><circle cx="22" cy="22" r="1"/><path d="M35,56H34V55a5,5,0,0,0-5-5H12V24a7,7,0,0,1,2.64-5.47,1,1,0,0,0,.38-.68,1.07,1.07,0,0,0-.23-.75l-3.25-3.89a3.53,3.53,0,0,1,2.66.1l.08,0a3.51,3.51,0,0,1,1.52,1.34L17,16.62a1,1,0,0,0,1,.46A7.7,7.7,0,0,1,19,17c9.78,0,11.66,12.76,12,15.53L28.06,34.7l-4.75-4.32a1,1,0,0,0-1.13-.15,7,7,0,0,1-3.09.76L19,31h0a6.88,6.88,0,0,1-3.91-1.2,1,1,0,0,0-1.39.27A1,1,0,0,0,14,31.46,9,9,0,0,0,18.27,33a12,12,0,0,0,7.27,8.74l.57.23A3,3,0,0,1,28,44.71V47a1,1,0,0,0,2,0V44.71a5,5,0,0,0-3.14-4.64l-.57-.23a10,10,0,0,1-6-6.94,8.66,8.66,0,0,0,2.16-.59l4.88,4.43a1,1,0,0,0,1.27.06l4-3a1,1,0,0,0,.4-.86c0-.15-.88-13-9-16.86V13a2,2,0,0,0-2-2H18a12.69,12.69,0,0,0-3.16.41,5.48,5.48,0,0,0-5.44.71A1,1,0,0,0,9,12.8a1,1,0,0,0,.22.76l.43.51A13,13,0,0,0,5,24V45a1,1,0,0,0,.45.83l1.5,1A.94.94,0,0,0,7.5,47a1,1,0,0,0,.55-1.83L7,44.46V24a11,11,0,0,1,3.94-8.4l1.69,2A9,9,0,0,0,10,24V50.1A5,5,0,0,0,6,55v1H5a3,3,0,0,0-3,3v2a1,1,0,0,0,1,1H37a1,1,0,0,0,1-1V59A3,3,0,0,0,35,56ZM22,13v2.37A12.32,12.32,0,0,0,19,15l-.63,0-.87-1.4a6.23,6.23,0,0,0-.41-.56c.3,0,.61-.07.91-.07ZM8,55a3,3,0,0,1,3-3H29a3,3,0,0,1,3,3v1H8Zm28,5H4V59a1,1,0,0,1,1-1H35a1,1,0,0,1,1,1Z"/><path d="M55,23.74a1,1,0,0,0,.94-.66L59.76,12.5l.9.32a1,1,0,0,0,1-.16,1,1,0,0,0,.37-.9L60.92,2.88a1,1,0,0,0-1.68-.6L52.78,8.46a1,1,0,0,0-.29.93,1,1,0,0,0,.64.74l1,.35-2.64,7.26H40.06a1,1,0,0,0-1,.72L34.69,33.92a1,1,0,0,0,.68,1.23,1,1,0,0,0,1.24-.69l4.21-14.72H52.17a1,1,0,0,0,.94-.66l3.22-8.87a1,1,0,0,0-.6-1.28l-.4-.14,3.85-3.68.63,5.28-.31-.11a1,1,0,0,0-1.28.6L54.27,21.74H43.08a1,1,0,0,0-1,.72L38.53,35a1,1,0,0,0,.69,1.24.84.84,0,0,0,.27,0,1,1,0,0,0,1-.73l3.37-11.82Z"/><path d="M29.93,10.63l-.62,3.61a1,1,0,0,0,1.45,1.06L34,13.59l3.24,1.71a1,1,0,0,0,1.06-.08,1,1,0,0,0,.39-1l-.62-3.61L40.7,8.08a1,1,0,0,0,.25-1,1,1,0,0,0-.81-.68l-3.62-.53L34.9,2.56a1,1,0,0,0-1.8,0L31.48,5.84l-3.62.53a1,1,0,0,0-.81.68,1,1,0,0,0,.25,1Zm2.36-2.88A1,1,0,0,0,33,7.2l1-1.94L35,7.2a1,1,0,0,0,.75.55l2.14.31L36.3,9.57a1,1,0,0,0-.29.88l.37,2.13-1.91-1a1,1,0,0,0-.94,0l-1.91,1L32,10.45a1,1,0,0,0-.29-.88L30.15,8.06Z"/><path d="M50,36H44a1,1,0,0,0-1,1V57a1,1,0,0,0,2,0V44h4V57a1,1,0,0,0,2,0V37A1,1,0,0,0,50,36Zm-5,6V38h4v4Z"/><path d="M61,28H55a1,1,0,0,0-1,1V57a1,1,0,0,0,2,0V36h4V57a1,1,0,0,0,2,0V29A1,1,0,0,0,61,28Zm-5,6V30h4v4Z"/><path d="M39,42H33a1,1,0,0,0-1,1v6a1,1,0,0,0,1,1h5v5a1,1,0,0,0,2,0V43A1,1,0,0,0,39,42Zm-1,6H34V44h4Z"/></g></svg>
