<svg id="Layer_5" enable-background="new 0 0 64 64" height="512" viewBox="0 0 64 64" width="512" xmlns="http://www.w3.org/2000/svg"><path d="m21.286 16 .714 10-2 2-2-2 .714-10z" fill="#2193b0"/><path d="m63 29.784v-7.568l-2.794-.687c-.123-.333-.262-.665-.417-.995l1.493-2.465-5.352-5.352-2.466 1.492c-.331-.154-.663-.293-.995-.416l-.685-2.793h-7.568l-.687 2.794c-.332.123-.664.262-.995.416l-2.466-1.492-5.352 5.352 1.493 2.466c-.154.33-.293.662-.417.994l-2.792.686v7.568l2.794.687c.125.339.267.677.425 1.013l-1.418 2.516h13.199c-4.418 0-8-3.582-8-8s3.582-8 8-8 8 3.582 8 8-3.582 8-8 8h9l1.405 2.809 2.878-2.879-1.493-2.465c.154-.33.293-.662.417-.995z" fill="#2193b0"/><path d="m48 21c-2.757 0-5 2.243-5 5s2.243 5 5 5 5-2.243 5-5-2.243-5-5-5zm0 8c-1.654 0-3-1.346-3-3s1.346-3 3-3 3 1.346 3 3-1.346 3-3 3z"/><path d="m54 37h2v2h-2z"/><path d="m50 37h2v2h-2z"/><path d="m46 37h2v2h-2z"/><path d="m62.565 50.707-.7-1.208c-.908-1.567-2.272-2.782-3.865-3.558v-2.941h4.618l-5-10h-3.974c2.044-1.651 3.356-4.174 3.356-7 0-4.963-4.038-9-9-9s-9 4.037-9 9c0 2.826 1.312 5.349 3.356 7h-13.356v-11h4.878l1.916-.471c.123-.332.262-.664.417-.994l-.325-.535h-6.886c-1.103 0-2 .897-2 2v11h-14v-11c0-1.103-.897-2-2-2h-5c-1.654 0-3-1.346-3-3v-12.5c0-.827.673-1.5 1.5-1.5s1.5.673 1.5 1.5v10.5c0 1.103.897 2 2 2h27.787l2-2h-12.898c1.301-1.272 2.111-3.042 2.111-5 0-3.859-3.14-7-7-7s-7 3.141-7 7c0 1.958.81 3.728 2.111 5h-7.111v-10.5c0-1.93-1.57-3.5-3.5-3.5s-3.5 1.57-3.5 3.5v12.5c0 2.757 2.243 5 5 5h5v11h-4.618l-5 10h4.618v18h8.308c1.589 1.266 3.589 2 5.692 2 2.999 0 5.812-1.519 7.475-4h19.05c1.664 2.481 4.476 4 7.475 4 3.244 0 6.258-1.724 7.865-4.499l.7-1.208-5.963-1.192-1.4-2.101 1.4-2.101zm-47.565-40.707c0-2.757 2.243-5 5-5s5 2.243 5 5-2.243 5-5 5-5-2.243-5-5zm41 35.239c-.651-.147-1.318-.239-2-.239-2.999 0-5.812 1.519-7.475 4h-6.525v-12.764l3.382 6.764h12.618zm-15-19.239c0-3.859 3.14-7 7-7s7 3.141 7 7-3.14 7-7 7-7-3.141-7-7zm15.382 9 3 6h-14.764l-3-6zm-48.764 0h28.764l-3 6h-28.764zm.382 8h26.618l3.382-6.764v12.764h-10.525c-1.664-2.481-4.476-4-7.475-4-3.244 0-6.258 1.724-7.865 4.499l-.7 1.208 5.963 1.192 1.4 2.101-1.4 2.101-5.963 1.192.7 1.208c.101.175.224.333.336.499h-4.471zm44.798 11 2.6 3.899 3.877.775c-1.324 1.461-3.241 2.326-5.275 2.326-2.484 0-4.805-1.342-6.056-3.501l-.289-.499h-21.31l-.289.499c-1.251 2.159-3.572 3.501-6.056 3.501-2.034 0-3.951-.865-5.275-2.325l3.877-.775 2.6-3.899-2.6-3.899-3.877-.775c1.324-1.462 3.241-2.327 5.275-2.327 2.484 0 4.805 1.342 6.056 3.501l.289.499h21.311l.289-.499c1.25-2.159 3.571-3.501 6.055-3.501 2.034 0 3.951.865 5.275 2.325l-3.877.775z"/><path d="m46 53h2v2h-2z"/><path d="m42 53h2v2h-2z"/><path d="m38 53h2v2h-2z"/></svg>