<?xml version="1.0" encoding="iso-8859-1"?>
<!-- Generator: Adobe Illustrator 19.0.0, SVG Export Plug-In . SVG Version: 6.00 Build 0)  -->
<svg version="1.1" id="Capa_1" xmlns="http://www.w3.org/2000/svg" xmlns:xlink="http://www.w3.org/1999/xlink" x="0px" y="0px"
	 viewBox="0 0 481.496 481.496" style="enable-background:new 0 0 481.496 481.496;" xml:space="preserve">
	 <style type="text/css">
	.blue{fill:#2193b0;}
</style>
<g>
	<g>
		<path d="M478.409,323.84l-12.736-12.744c-13.855-13.949-35.813-15.709-51.712-4.144l-118.104,85.32l-66.688-30.776h27.576
			c0.653,0.001,1.303-0.08,1.936-0.24l32-8c3.563-0.889,6.063-4.088,6.064-7.76v-32c-0.001-3.672-2.501-6.871-6.064-7.76l-32-8
			c-0.633-0.16-1.283-0.241-1.936-0.24h-112c-1.452,0-2.876,0.396-4.12,1.144l-38.096,22.856H0.745v16h104
			c1.452,0,2.876-0.396,4.12-1.144l38.096-22.856h108.8l24.984,6.248v19.504l-24.984,6.248h-63.016c-4.418,0-8,3.581-8,8
			c0,3.121,1.815,5.957,4.648,7.264l104,48c2.617,1.19,5.671,0.885,8-0.8l121.936-88.024c9.542-6.936,22.717-5.88,31.032,2.488
			l6.616,6.616L301.785,465.496h-43.608l-150.664-55.504c-0.886-0.327-1.823-0.495-2.768-0.496h-104v16h102.568L253.977,481
			c0.886,0.328,1.823,0.495,2.768,0.496h48c1.909,0.002,3.754-0.682,5.2-1.928l168-144c1.697-1.448,2.712-3.539,2.8-5.768
			C480.83,327.575,479.983,325.415,478.409,323.84z"/>
	</g>
</g>
<g>
	<g>
		<path class="blue"  d="M264.745,97.496v-16h-16.72c-1.201-7.125-4.005-13.885-8.2-19.768l11.832-11.832l-11.312-11.312l-11.832,11.832
			c-5.883-4.195-12.643-6.999-19.768-8.2v-16.72h-16v16.72c-7.125,1.201-13.885,4.005-19.768,8.2l-11.832-11.832l-11.312,11.312
			l11.832,11.832c-4.195,5.883-6.999,12.643-8.2,19.768h-16.72v16h16.72c1.201,7.125,4.005,13.885,8.2,19.768l-11.832,11.832
			l11.312,11.312l11.832-11.832c5.883,4.195,12.643,6.999,19.768,8.2v16.72h16v-16.72c7.125-1.201,13.885-4.005,19.768-8.2
			l11.832,11.832l11.312-11.312l-11.832-11.832c4.195-5.883,6.999-12.643,8.2-19.768H264.745z M200.745,121.496
			c-17.673,0-32-14.327-32-32s14.327-32,32-32s32,14.327,32,32S218.418,121.496,200.745,121.496z"/>
	</g>
</g>
<g>
	<g>
		<path class="blue" d="M164.393,0c-11.825,4.808-22.561,11.947-31.568,20.992l11.312,11.312c7.5-7.535,16.44-13.482,26.288-17.488L164.393,0z"/>
	</g>
</g>
<g>
	<g>
		<path d="M123.121,69.448l-15.536-3.856c-5.605,22.495-2.903,46.257,7.608,66.92l14.248-7.264
			C120.685,108.016,118.441,88.202,123.121,69.448z"/>
	</g>
</g>
<g>
	<g>
		<path class="blue" d="M268.585,20.992l-11.312,11.312c4.737,4.728,8.86,10.034,12.272,15.792l13.76-8.136
			C279.221,33.04,274.275,26.666,268.585,20.992z"/>
	</g>
</g>
<g>
	<g>
		<path d="M344.745,185.496c0.018,10.633-2.102,21.162-6.232,30.96l14.744,6.208c4.963-11.762,7.509-24.402,7.488-37.168H344.745z"
			/>
	</g>
</g>
<g>
	<g>
		<path d="M294.345,94.168l-4.936,15.216c18.378,5.987,33.976,18.407,43.928,34.976l13.704-8.248
			C335.099,116.242,316.388,101.348,294.345,94.168z"/>
	</g>
</g>
<g>
	<g>
		<path class="blue" d="M184.745,185.496h-16c-0.064,21.386,7.09,42.169,20.304,58.984l12.608-9.84
			C190.652,220.627,184.694,203.313,184.745,185.496z"/>
	</g>
</g>
<g>
	<g>
		<path d="M244.897,263l-3.976,15.504c7.785,1.989,15.789,2.994,23.824,2.992v-16C258.05,265.503,251.382,264.665,244.897,263z"/>
	</g>
</g>
<g>
	<g>
		<path class="blue" d="M328.745,193.496v-16h-16.72c-1.201-7.125-4.005-13.885-8.2-19.768l11.832-11.832l-11.312-11.312l-11.832,11.832
			c-5.883-4.195-12.643-6.999-19.768-8.2v-16.72h-16v16.72c-7.125,1.201-13.885,4.005-19.768,8.2l-11.832-11.832l-11.312,11.312
			l11.832,11.832c-4.195,5.883-6.999,12.643-8.2,19.768h-16.72v16h16.72c1.201,7.125,4.005,13.885,8.2,19.768l-11.832,11.832
			l11.312,11.312l11.832-11.832c5.883,4.195,12.643,6.999,19.768,8.2v16.72h16v-16.72c7.125-1.201,13.885-4.005,19.768-8.2
			l11.832,11.832l11.312-11.312l-11.832-11.832c4.195-5.883,6.999-12.643,8.2-19.768H328.745z M264.745,217.496
			c-17.673,0-32-14.327-32-32s14.327-32,32-32c17.673,0,32,14.327,32,32S282.418,217.496,264.745,217.496z"/>
	</g>
</g>
<g>
</g>
<g>
</g>
<g>
</g>
<g>
</g>
<g>
</g>
<g>
</g>
<g>
</g>
<g>
</g>
<g>
</g>
<g>
</g>
<g>
</g>
<g>
</g>
<g>
</g>
<g>
</g>
<g>
</g>
</svg>
