<svg id="Layer_5" enable-background="new 0 0 64 64" height="512" viewBox="0 0 64 64" width="512" xmlns="http://www.w3.org/2000/svg"><path d="m15.067 37.269h2v2h-2z" transform="matrix(.97 -.242 .242 .97 -8.798 5.037)"/><path d="m16.037 41.149h2v2h-2z" transform="matrix(.97 -.242 .242 .97 -9.701 5.381)"/><path d="m17.008 45.03h2v2h-2z" transform="matrix(.97 -.242 .242 .97 -10.612 5.732)"/><path d="m14 18c-1.654 0-3 1.346-3 3s1.346 3 3 3 3-1.346 3-3-1.346-3-3-3zm0 4c-.551 0-1-.449-1-1s.449-1 1-1 1 .449 1 1-.449 1-1 1z"/><path d="m45 33c1.654 0 3-1.346 3-3s-1.346-3-3-3-3 1.346-3 3 1.346 3 3 3zm0-4c.551 0 1 .449 1 1s-.449 1-1 1-1-.449-1-1 .449-1 1-1z"/><path d="m63.114 39.848-7.593-10.848h-3.6c-.135-.935-.453-1.809-.92-2.587v-19.413h-2v-2c0-2.206-1.794-4-4-4s-4 1.794-4 4v2h-2v5h-10.001v-2h-22c-3.309 0-6 2.691-6 6s2.691 6 6 6h.08c.282 1.956 1.369 3.652 2.92 4.736v6.264h-1.535l-4.589 6.883 4.029 10.072-2.556 5.111c-2.447.323-4.349 2.4-4.349 4.934v3h30v-3c0-2.534-1.902-4.611-4.349-4.934l-2.708-5.415-4.162-16.651h-1.781v-6.264c1.551-1.085 2.638-2.781 2.92-4.736h8.08v-2h10v6.413c-.467.778-.786 1.652-.92 2.587h-3.6l-7.594 10.848 6.114 17.323v2.829c0 1.654 1.346 3 3 3h18c1.654 0 3-1.346 3-3v-2.829zm-20.114 5.152h4v4h-4zm-7-2c-.352 0-.686.072-1 .184v-2.675l6.297-4.58c1.076.675 2.343 1.071 3.703 1.071s2.627-.396 3.703-1.071l6.297 4.58v2.675c-.314-.112-.648-.184-1-.184zm9-18c2.757 0 5 2.243 5 5s-2.243 5-5 5-5-2.243-5-5 2.243-5 5-5zm15.886 15.152-3.886 11.01v-5.162-6.509l-6.732-4.896c.867-.993 1.455-2.23 1.652-3.595h2.559zm-17.886-35.152c0-1.103.897-2 2-2s2 .897 2 2v2h-4zm6 4v15.264c-1.135-.794-2.513-1.264-4-1.264s-2.865.47-4 1.264v-15.264zm-20 51v1h-26v-1c0-1.654 1.346-3 3-3h20c1.654 0 3 1.346 3 3zm-4.612-5h-16.77l2-4h12.787zm-2.669-6h-12.042l-3.553-8.883 3.411-5.117h8.684zm-5.719-16h-4v-5.295c.634.19 1.305.295 2 .295s1.366-.105 2-.295zm-2-7c-2.757 0-5-2.243-5-5s2.243-5 5-5 5 2.243 5 5-2.243 5-5 5zm13-6h-6.08c-.488-3.387-3.401-6-6.92-6s-6.432 2.613-6.92 6h-.08c-2.206 0-4-1.794-4-4s1.794-4 4-4h20zm2-2v-4h10v4zm6.521 13h2.559c.197 1.365.785 2.602 1.652 3.595l-6.732 4.896v6.509 5.162l-3.886-11.01zm11.479 30h-4v-4h4zm8-1c0 .551-.449 1-1 1h-5v-6h-8v6h-5c-.551 0-1-.449-1-1v-6-8c0-.551.449-1 1-1h5v6h8v-6h5c.551 0 1 .449 1 1v8z"/><path d="m45 19h2v2h-2z"/><path d="m45 11h2v2h-2z"/><path d="m45 15h2v2h-2z"/></svg>