<?xml version="1.0" encoding="iso-8859-1"?>
<!-- Generator: Adobe Illustrator 19.0.0, SVG Export Plug-In . SVG Version: 6.00 Build 0)  -->
<svg version="1.1" id="Capa_1" xmlns="http://www.w3.org/2000/svg" xmlns:xlink="http://www.w3.org/1999/xlink" x="0px" y="0px"
	 viewBox="0 0 512 512" style="enable-background:new 0 0 512 512;" xml:space="preserve">
<g>
	<g>
		<g>
			<polygon points="77.261,102.753 77.253,102.756 77.265,102.752 			"/>
			<path d="M485.131,253.972H306.196v-6.225c0-19.285-15.685-34.98-34.98-34.98h-25.388c-12.796,0-24.01,6.905-30.103,17.186v0.01
				c-6.925-4.593-14.499-8.274-22.57-10.859v-81.225c36.734-19.711,41.327-70.71,8.476-96.646
				c-10.048-7.939-24.932-0.73-24.932,12.137v25.895c0,6.063-4.928,10.991-10.981,10.991c-6.053,0-10.981-4.928-10.981-10.991
				V53.369c0-12.816-14.905-20.106-25.003-12.076c-32.942,26.068-27.954,76.855,8.557,96.545v1.663c0,4.198,3.397,7.604,7.604,7.604
				c4.198,0,7.604-3.407,7.604-7.604c-0.477-3.255,1.906-10.595-4.593-13.404c-27.082-11.701-25.946-39.522-25.976-39.624
				c0.152-22.367,16.253-33.216,16.344-33.327c0.091,0,0.213,0.071,0.233,0.112c0.101,0,0.01,3.315,0.02,26.007
				c0,14.448,11.741,26.2,26.189,26.2c14.438,0,26.189-11.751,26.189-26.2c0-0.112,0.01-25.895,0.01-26.007
				c0.03-0.051,0.172-0.132,0.284-0.091c25.54,20.167,20.136,60.186-9.652,72.951c-2.788,1.196-4.603,3.944-4.603,6.986v82.533
				c-9.358-1.328-15.29-0.75-24.445-0.892v-44.734c0-4.198-3.407-7.604-7.604-7.604c-4.208,0-7.604,3.407-7.604,7.604v31.401
				l-11.214-34.047c-5.272-15.989-21.759-25.196-37.86-21.779l-9.135-27.741l4.248-1.399c5.384-1.774,8.892-6.986,8.365-12.4
				c-2.809-25.246-1.855-26.433-4.035-30.063l-13.1-21.941c-2.778-4.664-8.71-6.763-14.083-4.999l-22.955,7.564
				c-5.384,1.774-8.902,6.986-8.365,12.39c2.819,25.378,1.825,26.321,4.025,30.063l13.1,21.941
				c2.849,4.765,8.841,6.753,14.093,4.999l4.258-1.399l9.135,27.741c-14.986,6.824-22.783,24.03-17.51,40.019l8.04,24.415
				c-26.788,0.365-42.351,27.467-36.379,45.139c-27.082,0.842-38.853,34.868-18.92,52.683c-13.272,11.863-13.394,33.125,0,45.119
				c-13.353,11.954-13.333,33.236,0.051,45.17c-20.38,18.159-7.685,52.764,19.832,52.764h86.426
				c1.458,2.912,6.943,9.934,13.505,15.128c10.068,7.939,24.922,0.679,24.922-12.137v-2.88h21.971v2.88
				c0,12.836,14.864,20.065,25.003,12.076c8.266-6.548,14.499-15.099,18.169-24.648c1.424,1.039,9.892,11.549,25.946,11.549h25.388
				c18.859,0,34.26-14.976,34.96-33.672h178.956c14.813,0,26.869-12.055,26.869-26.869V280.84
				C512,266.027,499.944,253.972,485.131,253.972z M58.912,108.799L47.708,90.042l-2.139-21.748l18.372-6.053l11.194,18.768
				l2.149,21.738c-0.01,0-0.02,0.01-0.02,0.01c-0.005,0-0.008,0-0.011,0c-0.002,0-0.005,0-0.009,0c-0.01,0.01-0.02,0.01-0.03,0.01
				c-0.002,0.001,0.03-0.009-0.223,0.071C76.017,103.162,72.144,104.44,58.912,108.799z M82.871,163.47
				c7.442-2.352,9.146-3.397,13.1-3.397c7.361,0,14.235,4.684,16.669,12.055l14.043,42.635H81.31l-9.602-29.16
				C68.676,176.407,73.715,166.491,82.871,163.47z M15.233,289.742c0-8.081,6.57-14.651,14.651-14.651
				c0.101,0,72.464-0.02,73.265,0.03c1.673,9.369,4.35,18.372,7.919,26.889c-5.283,4.056-2.099,2.981-81.184,2.981
				c-8.081,0-14.651-6.57-14.651-14.651V289.742z M36.282,440.44h-6.398c-8.081,0-14.651-6.57-14.651-14.651v-0.598
				c0-8.081,6.57-14.651,14.651-14.651c77.676,0,74.695-0.73,79.298,1.754c-1.937,8.375-1.987,17.52,0.091,26.331
				C103.514,441.84,104.285,439.822,36.282,440.44z M116.888,380.579c0,8.071-6.57,14.651-14.651,14.651H29.884
				c-8.081,0-14.651-6.58-14.651-14.651v-0.598c0-8.081,6.57-14.651,14.651-14.651h72.353c8.081,0,14.651,6.57,14.651,14.651
				V380.579z M116.888,335.45c0,5.526-3.072,10.342-7.604,12.836h-0.01c-4.705,2.606-0.264,1.815-79.389,1.815
				c-8.081,0-14.651-6.57-14.651-14.651v-0.598c0-8.081,6.57-14.651,14.651-14.651h72.353c8.081,0,14.651,6.57,14.651,14.651V335.45
				z M139.518,458.742c-0.03,0.051-0.162,0.132-0.284,0.091c-6.008-4.766-10.68-10.974-13.475-18.281
				c-4.735-12.36-3.528-26.473,3.579-37.849c4.563,5.739,10.94,9.744,17.967,11.447
				C138.917,422.407,139.449,427.254,139.518,458.742z M138.312,387.808l-3.782-11.467v-0.01l-7.838-23.786
				c3.305-4.694,5.272-10.372,5.384-16.496c12.167,14.215,27.822,26.129,45.778,34.068c0.03,0.101,1.389,4.228,1.389,4.228
				c3.032,9.257-2.048,19.112-11.173,22.124l-7.625,2.504C151.341,401.972,141.384,397.096,138.312,387.808z M176.709,440.552
				h-21.971v-7.817c0-6.053,4.928-10.981,10.981-10.981c6.063,0,10.991,4.928,10.991,10.981V440.552z M198.7,452.506
				c0,0,0,0.01-0.01,0.01c-0.503,0.615-6.278,6.963-6.763,6.236v-2.991c-0.049,10.213-0.02-12.786-0.01-23.026
				c0-10.362-6.053-19.345-14.813-23.584c7.31-3.599,12.806-9.723,15.766-16.932C211.159,407.244,213.752,434.294,198.7,452.506z
				 M210.847,388.893c-3.63-4.502-7.929-8.486-12.816-11.771c4.198,1.075,8.476,1.926,12.816,2.565V388.893z M210.847,364.295
				c-27.406-4.634-54.133-19.741-72.556-44.845c-20.228-27.528-19.812-52.46-22.296-56.201h-0.01
				c-1.359-2.048-3.701-3.376-6.317-3.376c-28.369,0-16.638,0-59.679,0c-13.891,0-6.448-29.9,15.858-29.9
				c106.4,0,109.594-1.734,127.307,5.272c6.388,2.514,12.36,5.871,17.784,9.926C210.766,247.523,210.878,240.598,210.847,364.295z
				 M496.791,397.075c0,6.428-5.232,11.66-11.66,11.66H306.196v-54.863c0-4.208-3.397-7.604-7.604-7.604
				c-4.198,0-7.604,3.397-7.604,7.604c0,0.112,0.03,69.179-0.051,70.072c-0.669,10.301-9.247,18.463-19.721,18.463h-25.388
				c-10.981,0-19.771-8.963-19.771-19.771c0-192.157-0.618-177.881,1.795-183.082v-0.01c3.113-6.824,9.997-11.569,17.977-11.569
				h25.388c10.91,0,19.771,8.872,19.771,19.771v75.709c0,4.198,3.407,7.604,7.604,7.604c4.208,0,7.604-3.407,7.604-7.604V269.18
				h178.935c6.428,0,11.66,5.232,11.66,11.66V397.075z"/>
		</g>
	</g>
</g>
<g>
</g>
<g>
</g>
<g>
</g>
<g>
</g>
<g>
</g>
<g>
</g>
<g>
</g>
<g>
</g>
<g>
</g>
<g>
</g>
<g>
</g>
<g>
</g>
<g>
</g>
<g>
</g>
<g>
</g>
</svg>
