<svg id="Layer_5" enable-background="new 0 0 64 64" height="512" viewBox="0 0 64 64" width="512" xmlns="http://www.w3.org/2000/svg">
<style>
	.blue{fill:#2193b0;}
</style>
<path d="m20.036 25h-9.036c-5.514 0-10 4.486-10 10s4.486 10 10 10h10.391z" fill="#2193b0"/><path d="m52 58h10v-6h-10c-1.105 0-2 .895-2 2v2c0 1.105.895 2 2 2z" fill="#2193b0"/><path d="m11 41c3.309 0 6-2.691 6-6s-2.691-6-6-6-6 2.691-6 6 2.691 6 6 6zm0-10c2.206 0 4 1.794 4 4s-1.794 4-4 4-4-1.794-4-4 1.794-4 4-4z"/><path d="m59 41v-6h-4v-4h5v-3c0-4.601-3.472-8.4-7.933-8.931-.445-.347-.931-.629-1.429-.793l-8.709-3.483c.042-.261.071-.525.071-.793 0-2.128-1.342-3.937-3.22-4.658-2.673-5.149-7.907-8.342-13.724-8.342h-.801c-2.276 0-4.567.515-6.624 1.489l-2.959 1.402-4.085-1.634c-.514-.172-1.047-.258-1.587-.258-2.153 0-4.058 1.374-4.741 3.418-.404 1.209-.32 2.496.206 3.65-2.179 1.806-3.465 4.486-3.465 7.351 0 3.204 1.592 6.178 4.258 7.956l1.635 1.09-.032.444c.652-.298 1.337-.533 2.054-.686l.895-12.521 8.625 3.45 2.495 36.849h-13.87l.505-8.621c-.687-.253-1.339-.575-1.946-.964l-.567 9.681c-2.305.445-4.052 2.472-4.052 4.904v5h26v-5c0-2.435-1.751-4.463-4.059-4.905l-2.446-36.12 21.814 8.725c-.195.736-.309 1.504-.309 2.3v3h5v4h-14v6h-4v8h12v4h-10v10h32v-14-1-7zm-34 17v3h-22v-3c0-1.654 1.346-3 3-3h16c1.654 0 3 1.346 3 3zm32-17h-4v-4h4zm-16 0v-4h4v4zm6-4h4v4h-4zm-7-23c0 .007-.002.013-.002.02l-5.179-2.071c.557-.592 1.337-.949 2.181-.949 1.654 0 3 1.346 3 3zm-21.513-9.703c1.791-.849 3.785-1.297 5.767-1.297h.801c4.592 0 8.764 2.286 11.239 6.052-1.389.197-2.619.974-3.408 2.124l-15.681-6.272zm-12.331 1.753c.41-1.227 1.552-2.051 2.844-2.051.324 0 .645.052.898.136l16.259 6.503-2.481 5.457-15.623-6.249c-.761-.254-1.377-.788-1.735-1.505s-.416-1.531-.162-2.291zm.901 17.119-.689-.46c-2.109-1.405-3.368-3.757-3.368-6.291 0-2.22.972-4.304 2.633-5.731.503.462 1.088.822 1.732 1.036l.495.198zm18.479-6.331 2.481-5.457 20.182 8.072c-2.238.735-4.089 2.324-5.169 4.382zm18.464 11.162c0-3.86 3.14-7 7-7s7 3.14 7 7v1h-14zm5 3h4v4h-4zm-14 6h4v4h-4zm-4 6h30v4h-30zm30 18h-28v-6h10v-6h18z"/><path d="m39 57h2v2h-2z"/><path d="m35 57h2v2h-2z"/><path d="m43 57h2v2h-2z"/><path d="m16.356 9.343h2.001v2h-2.001z" transform="matrix(.371 -.929 .929 .371 1.308 22.617)"/><path d="m8.928 6.371h2.001v2h-2.001z" transform="matrix(.371 -.929 .929 .371 -.603 13.853)"/><path d="m12.642 7.857h2v2h-2z" transform="matrix(.372 -.928 .928 .372 .351 18.232)"/></svg>