<?xml version="1.0"?>
<svg xmlns="http://www.w3.org/2000/svg" viewBox="0 0 64 64" width="512" height="512"><g id="Tax"><path d="M24.222,8.151a5,5,0,1,0,0,7.071A5.006,5.006,0,0,0,24.222,8.151Zm-1.414,5.657a3.078,3.078,0,0,1-4.243,0,3,3,0,0,1,2.121-5.12h0a3,3,0,0,1,2.121,5.12Z"/><path d="M43.313,16.684a5,5,0,1,0-3.535-1.462A4.984,4.984,0,0,0,43.313,16.684ZM41.192,9.565a3,3,0,0,1,4.244,4.243,3.08,3.08,0,0,1-4.244,0A3.005,3.005,0,0,1,41.192,9.565Z"/><circle cx="32" cy="23" r="2"/><path d="M61,28H44.071l-6.418-6.418L39.437,19.8A9.011,9.011,0,1,0,35.2,15.566l-1.782,1.781-.711-.711a1,1,0,0,0-1.414,0l-.711.711L28.8,15.563A9.014,9.014,0,1,0,24.563,19.8l1.784,1.785L19.926,28H3a1,1,0,0,0-1,1V61a1,1,0,0,0,1,1H61a1,1,0,0,0,1-1V29A1,1,0,0,0,61,28Zm-9.91,6A6.008,6.008,0,0,0,56,38.91V51.09A6.008,6.008,0,0,0,51.09,56H12.91A6.008,6.008,0,0,0,8,51.09V38.91A6.008,6.008,0,0,0,12.91,34H35.929l9.507,9.506a1,1,0,0,0,1.414,0l1.414-1.414a1,1,0,0,0,.293-.707V38.7A15.03,15.03,0,0,0,47.8,34Zm-8.341-4.494a12.921,12.921,0,0,1,3.475,6.3l-8.275-8.274a1,1,0,0,0-1.414,0l-2.121,2.121-1-1,4.243-4.242Zm-6.921,1.565,1.414-1.414,9.315,9.314v2l-.414.414ZM38.364,6.736a7,7,0,1,1-2.051,4.951A6.981,6.981,0,0,1,38.364,6.736Zm-2.076,10.57a9.265,9.265,0,0,0,.662.744,9.055,9.055,0,0,0,.744.662l-1.455,1.456-1.407-1.407ZM36.245,23,32,27.244,27.757,23,32,18.757ZM15.736,16.636a7,7,0,1,1,9.9,0A7.009,7.009,0,0,1,15.736,16.636Zm10.57,2.076a8.552,8.552,0,0,0,1.406-1.406l1.456,1.455-1.407,1.407Zm.036,5.7L29.929,28H22.754ZM60,60H4V30H31.929l2,2H12a1,1,0,0,0-1,1,4,4,0,0,1-4,4,1,1,0,0,0-1,1V52a1,1,0,0,0,1,1,4,4,0,0,1,4,4,1,1,0,0,0,1,1H52a1,1,0,0,0,1-1,4,4,0,0,1,4-4,1,1,0,0,0,1-1V38a1,1,0,0,0-1-1,4,4,0,0,1-4-4,1,1,0,0,0-1-1H46.97a14.949,14.949,0,0,0-1.208-2H60Z"/><path d="M32,42a1,1,0,0,1,1,1,1,1,0,0,0,2,0,3,3,0,0,0-2-2.816V39a1,1,0,0,0-2,0v1.184A2.993,2.993,0,0,0,32,46a1,1,0,1,1-1,1,1,1,0,0,0-2,0,3,3,0,0,0,2,2.816V51a1,1,0,0,0,2,0V49.816A2.993,2.993,0,0,0,32,44a1,1,0,0,1,0-2Z"/><path d="M32,35A10,10,0,1,0,42,45,10.011,10.011,0,0,0,32,35Zm0,18a8,8,0,1,1,8-8A8.009,8.009,0,0,1,32,53Z"/></g></svg>
