<svg xmlns="http://www.w3.org/2000/svg" viewBox="0 0 495.93 90.09"><defs><style>.cls-1{fill:#ed1d24;}</style></defs><title>Asset 1</title><g id="Layer_2" data-name="Layer 2"><g id="Layer_1-2" data-name="Layer 1"><path d="M485.58,15.11C472.42.13,452.77,0,447.81,0c-5.23,0-19.49-.1-32,10-15.49,12.48-16.15,30.86-16.17,35.1,0,4.08.2,19.83,12.94,32.25,13.15,12.83,30.11,12.8,35.19,12.79,4.45,0,24.67,0,38-15.45,9.92-11.49,10.14-24.73,10.14-29.59S495.74,26.66,485.58,15.11ZM475.35,67.38C465.65,79,450.9,79,447.66,79c-3.7,0-16.07,0-25.65-9.65-9.29-9.38-9.44-21.26-9.43-24.34s.49-17.07,11.78-26.49c9.1-7.58,19.49-7.53,23.3-7.51,3.61,0,17.94.1,27.54,11.4,7.4,8.72,7.54,18.9,7.54,22.6S482.58,58.71,475.35,67.38Z"/><path d="M145.15,75.89h-4.57c-6.7-.15-14.76-1.26-21.13-7.38-8.45-8.11-9.3-20.61-9.38-22.18,0-.63,0-1.18,0-1.63v-.53a34,34,0,0,1,7.63-20.68,24.8,24.8,0,0,1,11.4-7.7,41.39,41.39,0,0,1,7.31-1.31S140,14,143.88,14h36.3V2.24H146.39c-3.2,0-6.13.31-6.13.31a73.67,73.67,0,0,0-10.07,1.54,44,44,0,0,0-16.25,7,40.38,40.38,0,0,0-13.38,16.48,41.82,41.82,0,0,0-3.43,16.64c0,.37,0,1.44.05,2.83a43.52,43.52,0,0,0,4.29,17.44A39.61,39.61,0,0,0,110,75.89c.09.1.19.18.28.27a42.68,42.68,0,0,0,17.56,9.36,53.23,53.23,0,0,0,12.55,2.13c1.71.09,3.55.12,5.52,0l1.38,0h33.6V75.89Z"/><rect x="127.35" y="38.29" width="49.37" height="11.76"/><polygon points="393.08 2.23 314.17 2.23 314.17 13.99 347.02 13.99 347.02 87.65 360.18 87.65 360.18 13.99 393.08 13.99 393.08 2.23"/><rect x="289.54" y="2.39" width="13.15" height="85.26"/><polygon points="224.94 43.45 189.77 87.61 206.42 87.65 233.57 53.4 260.81 87.69 276.46 87.65 241.34 43.45 273.94 2.39 258.28 2.35 233.57 33.49 208.78 2.35 192.13 2.39 224.94 43.45"/><rect class="cls-1" y="2.39" width="81.08" height="20.89"/><rect class="cls-1" y="34.54" width="81.08" height="20.89"/><rect class="cls-1" y="65.52" width="81.08" height="20.89"/></g></g></svg>