<?xml version="1.0" encoding="utf-8"?>
<!-- Generator: Adobe Illustrator 23.0.2, SVG Export Plug-In . SVG Version: 6.00 Build 0)  -->
<svg version="1.1" id="Layer_1" xmlns="http://www.w3.org/2000/svg" xmlns:xlink="http://www.w3.org/1999/xlink" x="0px" y="0px"
	 viewBox="0 0 246.4 160.7" style="enable-background:new 0 0 246.4 160.7;" xml:space="preserve">
<style type="text/css">
	.st0{fill:#0000FF;}
	.st1{fill:#FFFFFF;}
</style>
<g>
	<g>
		<g>
			<g>
				<circle class="st0" cx="230.1" cy="16.3" r="16.3"/>
				<path class="st1" d="M235.9,133.1l-49.5-49.7l24.9-24.9l0,0c3-3,5-7,5-11.8c0-9-7.3-16.3-16.3-16.3c-4.5,0-8.5,1.8-11.3,4.5l0,0
					l-25.4,25.4l-30.9-30.9l-1.5-1.5c-7.5-7.3-16.6-13.1-26.4-16.8C95,7.5,84.5,5.5,73.4,6.3C34,8.3,1.8,40.2,0.1,79.9
					c-2,44.2,33.4,80.6,77.1,80.6c10.8,0,21.1-2.3,30.4-6.3c9-3.8,17.1-9.5,24.1-16.3l31.4-31.4l49.5,49.5c3,3,7.3,4.8,11.6,4.8
					C238.9,161,246.2,143.4,235.9,133.1z M106.1,117.5c-4.3,3.3-8.8,6.3-15.3,8.5c0,0-6.5,2-13.3,2c-24.6,0-44.7-19.8-44.7-44.4
					s19.8-44.7,44.7-44.7c7.3,0,14.1,2.3,14.1,2.3c6,2,10.5,5,14.6,8c14.8,11.6,30.9,30.4,34.2,34.2
					C136.9,87.1,120.9,105.7,106.1,117.5z"/>
			</g>
		</g>
	</g>
</g>
</svg>
