<?xml version="1.0"?>
<svg xmlns="http://www.w3.org/2000/svg" xmlns:xlink="http://www.w3.org/1999/xlink" version="1.1" id="Capa_1" x="0px" y="0px" viewBox="0 0 512 512" style="enable-background:new 0 0 512 512;" xml:space="preserve" width="512px" height="512px" class=""><g><g>
	<g>
		<path d="M511.9,320.61v-0.04c-0.18-54.25-15.29-95.2-44.92-121.73c-37.76-33.81-86.4-32.66-105.56-30.6    c-26.81,2.88-45.66,12.98-59.42,24.25V181c0-8.28-6.72-15-15-15H180c-8.28,0-15,6.72-15,15v300c0,8.28,6.72,15,15,15h107    c8.28,0,15-6.72,15-15V309.48c0-15.19,19.89-30.17,40.93-30.84c14.4-0.45,31.96,5.5,34.07,36.3V481c0,8.28,6.72,15,15,15h105    c3.98,0,7.8-1.58,10.61-4.4c2.81-2.81,4.39-6.63,4.39-10.61L511.9,320.61z M407,466c0,0-0.01-152.18-0.03-152.5    c-1.7-26.96-12.72-42.11-21.67-50.07c-11.46-10.19-26.45-15.3-43.31-14.77c-33.8,1.06-69.99,25.76-69.99,60.82V466h-77V196h77    v34.56c0,6.36,4,12.02,9.99,14.14c5.99,2.12,12.66,0.24,16.66-4.69c16.47-20.31,31.01-38.18,65.97-41.94    c15.17-1.64,53.57-2.65,82.35,23.12c23.03,20.62,34.78,54.08,34.93,99.46L481.99,466H407z" data-original="#000000" class="active-path" data-old_color="#000000" fill="#FFFFFF"/>
	</g>
	<g>
		<path d="M120,166H15c-8.28,0-15,6.72-15,15v300c0,8.28,6.72,15,15,15h105c8.28,0,15-6.72,15-15V181C135,172.72,128.28,166,120,166    z M105,466H30V196h75V466z" data-original="#000000" class="active-path" data-old_color="#000000" fill="#FFFFFF"/>
	</g>
	<g>
		<path d="M67.5,16C30.28,16,0,42.92,0,76s30.28,60,67.5,60S135,109.08,135,76S104.72,16,67.5,16z M67.5,106    C46.82,106,30,92.54,30,76s16.82-30,37.5-30S105,59.46,105,76S88.18,106,67.5,106z" data-original="#000000" class="active-path" data-old_color="#000000" fill="#FFFFFF"/>
	</g>
</g></g> </svg>
